<svg id="Layer_1" data-name="Layer 1" xmlns="http://www.w3.org/2000/svg" viewBox="0 0 512 502.65"><defs><style>.cls-1{fill:#444;}.cls-2{fill:#898989;}.cls-3{fill:#565555;}</style></defs><title>asteroid</title><path class="cls-1" d="M103.1,496.67c-11,0-24.51-5.92-36.17-15.83-9.55-8.09-16.86-18.17-20.07-27.64-2.58-7.59-2.28-14,.81-17.68,2.92-3.44,8-4.16,11.67-4.16,11,0,24.52,5.91,36.18,15.81,9.54,8.11,16.85,18.19,20.06,27.64,2.58,7.6,2.29,14.05-.81,17.69C111.86,495.94,106.82,496.67,103.1,496.67Z" transform="translate(0 -4.67)"/><path class="cls-1" d="M493.33,258.35c-9.27,0-29.59-18.41-43.69-53-7.09-17.37-11-35.43-10.78-49.54.22-12,3.34-18.58,6.34-19.81a4.2,4.2,0,0,1,1.66-.3c9.25,0,29.59,18.4,43.69,53,7.09,17.37,11,35.42,10.78,49.53-.22,12-3.34,18.59-6.34,19.81A4.38,4.38,0,0,1,493.33,258.35Z" transform="translate(0 -4.67)"/><path class="cls-1" d="M104.48,69.33c-10.29,0-17.89-3.11-20.33-8.33-2-4.32-.62-10.62,3.86-17.28,5.59-8.28,15.29-16.07,26.63-21.39,9.62-4.5,19.88-7,28.9-7,10.29,0,17.89,3.11,20.33,8.31,2,4.33.62,10.62-3.86,17.28-5.59,8.28-15.29,16.08-26.63,21.39C123.76,66.85,113.5,69.33,104.48,69.33Z" transform="translate(0 -4.67)"/><path class="cls-2" d="M500.42,184.68c-14.26-35-36.93-59.6-53.56-59.6a15,15,0,0,0-5.69,1.08L416.52,137A230.47,230.47,0,0,0,312.4,56.27a10.66,10.66,0,0,0-20.1-6.72,230.52,230.52,0,0,0-106.6-4.42l-12.17-26c-4.45-9.5-15.85-14.47-30-14.47-10.24,0-21.93,2.61-33.42,8C82.77,25.49,66.82,49.15,74.49,65.54l12,25.5A230.94,230.94,0,0,0,40,141a10.65,10.65,0,1,0-10.75,17.3A230.28,230.28,0,0,0,5.54,320.88a10.66,10.66,0,0,0,5.12,20l.32,0A229.45,229.45,0,0,0,51.08,415L39.55,428.61C27.83,442.41,37,469.44,60,489c14.09,12,30.1,18.35,43.08,18.35,8.23,0,15.26-2.56,19.8-7.92l15.33-18.11A230.28,230.28,0,0,0,324,480a10.66,10.66,0,1,0,18.88-9.6,230.91,230.91,0,0,0,84.67-83.26,10.66,10.66,0,1,0,10-18.83,228.16,228.16,0,0,0,21.34-83.27L499,267.94C515.77,261.1,516.39,223.83,500.42,184.68ZM103.1,486c-6.29,0-17.73-3.48-29.27-13.28-7.29-6.19-13-13.52-16-20.64-2.22-5.24-2.17-8.49-2-9.58a9.79,9.79,0,0,1,3.47-.47c6.29,0,17.73,3.47,29.27,13.28,7.29,6.19,13,13.52,16,20.63,2.23,5.25,2.17,8.5,2,9.59A10.41,10.41,0,0,1,103.1,486ZM149.71,37c-4.78,6.06-12.19,11.64-20.85,15.71-8.24,3.85-16.89,6-24.38,6-6.37,0-9.61-1.53-10.58-2.22.08-1.11.88-4.27,4.41-8.75,4.78-6.06,12.19-11.64,20.85-15.7,8.24-3.86,16.89-6,24.38-6,6.37,0,9.61,1.53,10.58,2.22C154,29.33,153.24,32.49,149.71,37Zm340.21,208.7a53.37,53.37,0,0,1-10.06-9.5c-7.62-9-14.84-21.32-20.34-34.81s-9-27.37-9.81-39.11a52.8,52.8,0,0,1,.56-13.82,53.07,53.07,0,0,1,10.06,9.5c7.63,8.95,14.84,21.32,20.34,34.81s9,27.37,9.82,39.11A53.23,53.23,0,0,1,489.92,245.67Z" transform="translate(0 -4.67)"/><path class="cls-3" d="M319.32,156c-2.64,20.56-28.46,34.19-57.67,30.44s-50.75-23.47-48.11-44S242,108.21,271.21,112,322,135.43,319.32,156Z" transform="translate(0 -4.67)"/><path class="cls-3" d="M356.4,328.06c10.92,17.1,3.48,41.38-16.63,54.24s-45.28,9.43-56.21-7.66-3.49-41.36,16.63-54.22S345.47,311,356.4,328.06Z" transform="translate(0 -4.67)"/><path class="cls-3" d="M228.53,282c0,35.34-33.43,64-74.67,64s-74.65-28.64-74.65-64,33.43-64,74.65-64S228.53,246.64,228.53,282Z" transform="translate(0 -4.67)"/></svg>