<svg id="Layer_1" data-name="Layer 1" xmlns="http://www.w3.org/2000/svg" viewBox="0 0 256 109.34"><defs><style>.cls-1{fill:#383737;}.cls-2{fill:#c1c1c1;}</style></defs><title>keyboard</title><rect class="cls-1" width="28" height="28" rx="3.42"/><rect class="cls-1" y="46" width="28" height="28" rx="3.42"/><rect class="cls-1" x="38" y="46" width="28" height="28" rx="3.42"/><rect class="cls-1" x="76" y="46" width="28" height="28" rx="3.42"/><rect class="cls-1" x="114" y="46" width="28" height="28" rx="3.42"/><rect class="cls-1" x="152" y="46" width="28" height="28" rx="3.42"/><rect class="cls-1" x="190" y="46" width="28" height="28" rx="3.42"/><rect class="cls-1" x="228" y="46" width="28" height="28" rx="3.42"/><rect class="cls-1" x="38" width="28" height="28" rx="3.42"/><rect class="cls-1" x="76" width="28" height="28" rx="3.42"/><rect class="cls-1" x="114" width="28" height="28" rx="3.42"/><rect class="cls-1" x="152" width="28" height="28" rx="3.42"/><rect class="cls-1" x="190" width="28" height="28" rx="3.42"/><rect class="cls-1" x="228" width="28" height="28" rx="3.42"/><rect class="cls-1" y="88" width="46" height="21" rx="3.42"/><rect class="cls-2" x="52" y="88" width="128" height="21" rx="3.61"/><rect class="cls-1" x="198.19" y="98.15" width="17.18" height="11.19" rx="3.36"/><rect class="cls-1" x="217.63" y="98.15" width="17.18" height="11.19" rx="3.36"/><rect class="cls-1" x="217.42" y="85" width="17.18" height="11.19" rx="3.36"/><rect class="cls-1" x="236.55" y="98.15" width="17.18" height="11.19" rx="3.36"/><polygon points="207.34 106.64 204.43 103.72 207.34 100.81 207.34 106.64"/><polygon points="244.48 100.5 247.39 103.41 244.48 106.32 244.48 100.5"/><polygon points="229.19 102.27 226.27 105.18 223.36 102.27 229.19 102.27"/><polygon points="223.15 92.07 226.06 89.16 228.98 92.07 223.15 92.07"/></svg>