<svg id="Layer_1" data-name="Layer 1" xmlns="http://www.w3.org/2000/svg" viewBox="0 0 512 497.37"><defs><style>.cls-1{fill:#fff;}.cls-2{fill:red;}.cls-3{fill:#003dff;}.cls-4{fill:#b7b7b7;}.cls-5{fill:#0031ff;}.cls-6{fill:#ffda44;}.cls-7{fill:#ff9811;}.cls-8{fill:#ff5023;}.cls-9{fill:#dedfe0;}</style></defs><title>ship</title><polygon class="cls-1" points="0 317.25 0 409.6 263.31 409.6 263.31 282.14 0 317.25"/><polygon class="cls-2" points="0 322.06 0 405.32 237.39 405.32 237.39 290.41 0 322.06"/><polygon class="cls-3" points="0 325.98 0 403.05 219.73 403.05 219.73 296.69 0 325.98"/><polygon class="cls-4" points="1.66 332.48 1.66 395.05 206 395.05 206 308.69 1.66 332.48"/><polygon class="cls-1" points="248.69 284.14 248.69 411.6 512 411.6 512 319.25 248.69 284.14"/><polygon class="cls-2" points="274.61 292.41 274.61 407.32 512 407.32 512 324.06 274.61 292.41"/><polygon class="cls-5" points="292.27 298.69 292.27 405.05 512 405.05 512 327.98 292.27 298.69"/><polygon class="cls-4" points="306 310.69 306 397.05 510.34 397.05 510.34 334.48 306 310.69"/><circle class="cls-6" cx="256" cy="424.23" r="29.26"/><path class="cls-7" d="M191.46,373v37.79c0,58.66,64.54,93.87,64.54,93.87s64.54-35.21,64.54-93.87V373ZM256,449.92c-9-8.64-17.91-20.12-20.15-33L256,402.29l20.12,14.63C273.9,429.84,265,441.3,256,449.92Z" transform="translate(0 -7.31)"/><rect class="cls-1" y="353.87" width="512" height="15.85"/><path class="cls-8" d="M256,373v43.88h20.12c-2.22,12.93-11.12,24.39-20.09,33l0,0v54.8s64.54-35.21,64.54-93.88V373Z" transform="translate(0 -7.31)"/><path class="cls-9" d="M343.77,416.91l-29.26-87.77V92.43C314.51,39.23,256,7.31,256,7.31s-58.51,31.92-58.51,85.12V329.14l-29.26,87.77Z" transform="translate(0 -7.31)"/><path class="cls-9" d="M343.77,416.91l-29.26-87.77V92.43C314.51,39.23,256,7.31,256,7.31v409.6Z" transform="translate(0 -7.31)"/><rect x="197.57" y="81.82" width="116.94" height="25.87"/><rect class="cls-1" x="197.57" y="87.75" width="116.94" height="14"/><rect x="197.57" y="301.08" width="116.94" height="25.87"/><rect class="cls-1" x="197.49" y="307.01" width="117.03" height="14"/><rect class="cls-1" x="197.49" y="164.06" width="117.03" height="45.17"/><rect class="cls-3" x="197.49" y="167.69" width="117.03" height="37.11"/><circle class="cls-2" cx="256.26" cy="185.69" r="47.37"/><polygon class="cls-1" points="256.26 142.66 265.92 172.39 297.18 172.39 271.89 190.76 281.55 220.49 256.26 202.12 230.97 220.49 240.63 190.76 215.34 172.39 246.6 172.39 256.26 142.66"/></svg>