<?xml version="1.0" encoding="utf-8"?>
<!-- Generator: Adobe Illustrator 23.0.6, SVG Export Plug-In . SVG Version: 6.00 Build 0)  -->
<svg version="1.1" id="Layer_1" xmlns="http://www.w3.org/2000/svg" xmlns:xlink="http://www.w3.org/1999/xlink" x="0px" y="0px"
	 viewBox="0 0 150 200" style="enable-background:new 0 0 150 200;" xml:space="preserve">
<style type="text/css">
	.st0{fill:#402B2D;}
	.st1{fill:#F29102;}
	.st2{fill:#68464A;}
	.st3{fill:#FFE76D;}
</style>
<g>
	<g>
		<polygon class="st0" points="53.82,180.87 58.26,193.59 58.26,200.28 69.79,200.28 69.79,193.59 79.73,193.59 79.73,200.28 
			91.26,200.28 91.26,193.59 91.33,193.59 95.76,180.87 		"/>
		<path class="st1" d="M74.79,35.16c0,0-48.47,42.92-20.93,145.71h20.93h20.93C123.27,78.08,74.79,35.16,74.79,35.16z"/>
		<path class="st2" d="M85.32,48.45c-5.72-9.04-10.53-13.29-10.53-13.29s-4.8,4.25-10.53,13.29H85.32z"/>
		<g>
			<g>
				<polygon class="st3" points="54.5,140.83 10.99,150.87 10.99,156.89 54.5,156.89 				"/>
				<path class="st1" d="M6.91,104.63c0,0-11.39,23.77-4.92,80.7h4.92h4.92C18.3,128.4,6.91,104.63,6.91,104.63z"/>
				<path class="st2" d="M6.91,104.63c0,0-1.39,2.9-2.92,9.09h5.84C8.3,107.53,6.91,104.63,6.91,104.63z"/>
			</g>
			<g>
				<polygon class="st3" points="95.09,140.83 138.59,150.87 138.59,156.89 95.09,156.89 				"/>
				<path class="st1" d="M142.68,104.63c0,0,11.39,23.77,4.92,80.7h-4.92h-4.92C131.28,128.4,142.68,104.63,142.68,104.63z"/>
				<path class="st2" d="M142.68,104.63c0,0,1.39,2.9,2.92,9.09h-5.84C141.29,107.53,142.68,104.63,142.68,104.63z"/>
			</g>
		</g>
		<path class="st2" d="M101.48,179.24c0,1.66-1.24,3.01-2.77,3.01H50.88c-1.53,0-2.77-1.35-2.77-3.01v-4.78
			c0-1.66,1.24-3.01,2.77-3.01h47.83c1.53,0,2.77,1.35,2.77,3.01V179.24z"/>
	</g>
	<path class="st3" d="M95.65,93.63c0,10.23-9.34,18.53-20.85,18.53c-11.52,0-20.85-8.3-20.85-18.53c0-10.23,9.34-18.53,20.85-18.53
		C86.31,75.1,95.65,83.4,95.65,93.63z"/>
	<path class="st2" d="M92.28,93.63c0,8.58-7.83,15.54-17.48,15.54s-17.49-6.96-17.49-15.54c0-8.58,7.83-15.54,17.49-15.54
		S92.28,85.05,92.28,93.63z"/>
	<path class="st2" d="M81.01,5.52c0-3.05-2.78-5.52-6.22-5.52c-3.43,0-6.22,2.47-6.22,5.52c0,2.25,1.51,4.18,3.67,5.04v33.87h5.09
		V10.57C79.5,9.7,81.01,7.77,81.01,5.52z"/>
</g>
</svg>
